<svg width="424" height="250" viewBox="0 0 424 250" fill="none" xmlns="http://www.w3.org/2000/svg">
<path d="M88.9402 223.694C87.7939 223.925 86.78 224.239 85.6668 224.59C75.5354 227.769 65.2829 230.456 55.1133 233.512C49.1733 235.295 41.9534 235.932 35.7776 235.521C25.3956 234.834 14.6912 229.828 7.9546 221.813C2.11819 214.799 -0.691146 205.752 0.144687 196.667C0.795713 189.75 5.5973 177.252 7.7758 170.113C15.3742 145.157 23.2551 120.288 31.4166 95.5097L47.8052 43.2382C49.8892 36.5653 51.8959 29.8669 54.0114 23.2021C56.256 16.1305 58.558 10.1849 64.5648 5.33673C69.5712 1.35762 75.9598 -0.457008 82.3105 0.296764C92.0754 1.40856 99.999 8.92442 102.446 18.1951C104.804 27.1276 99.0118 31.7798 111.42 28.0614C125.558 23.934 141.845 21.6172 156.5 22.4688C175.24 23.558 193.587 32.3264 207.264 44.9044C210.026 47.1775 211.566 49.533 215.089 46.7868C219.936 43.0114 224.445 39.4103 229.749 36.1943C236.672 31.9819 244.12 28.6977 251.899 26.4267C269.046 21.5927 287.183 22.1542 304.51 25.7595C307.523 26.3869 317.112 29.4274 318.785 29.4985C320.26 28.4932 320.347 23.3879 320.554 21.4401C322.976 -1.18675 354.157 -8.25712 365.313 11.7494C368.728 17.8757 371.189 27.5491 373.369 34.7877L380.081 56.3753L405.615 137.851C410.758 154.339 415.869 170.94 421.555 187.253C427.349 203.873 421.022 221.942 405.574 230.595C390.15 239.236 373.176 234.572 357.431 229.934L334.348 223.019C334.019 224.566 333.781 225.366 334.249 226.928C336.754 227.825 339.755 229.692 338.551 232.782C337.088 236.535 329.188 235.454 325.807 235.336C305.361 234.653 284.938 234.247 264.468 234.401C258.738 234.971 240.597 232.825 236.499 237.366C226.49 248.246 222.292 250.356 208.098 249.955C194.489 249.57 189.81 236.573 183.758 235.319C175.374 233.579 158.356 234.591 149.077 234.608L102.55 234.464C99.1543 234.459 95.7557 234.509 92.3561 234.516C89.6237 234.521 82.3881 234.658 84.7089 229.927C85.6945 227.918 87.4856 227.546 89.4346 227.036C89.4608 225.655 89.4783 224.972 88.9402 223.694Z" fill="white"/>
<path d="M88.94 223.694C89.2984 223.293 99.04 220.143 100.308 219.804C119.177 214.76 140.35 209.983 159.952 211.055C175.775 211.92 190.944 216.63 202.672 227.51C204.517 229.221 210.364 234.228 213.363 232.887C224.2 226.292 232.589 217.146 245.783 214.621C269.168 208.424 291.573 210.517 314.666 216.887C319.688 218.271 330.394 220.751 334.348 223.019C334.019 224.566 333.781 225.366 334.249 226.928C336.753 227.825 339.755 229.692 338.551 232.782C337.087 236.535 329.188 235.454 325.807 235.336C305.36 234.653 284.938 234.247 264.468 234.401C258.738 234.971 240.597 232.825 236.499 237.366C226.49 248.246 222.291 250.356 208.098 249.955C194.489 249.57 189.81 236.573 183.758 235.319C175.373 233.579 158.356 234.591 149.077 234.608L102.55 234.464C99.1541 234.459 95.7555 234.509 92.3559 234.516C89.6235 234.521 82.388 234.658 84.7087 229.927C85.6943 227.918 87.4854 227.546 89.4344 227.036C89.4606 225.655 89.4781 224.972 88.94 223.694Z" fill="#21386E"/>
<path d="M334.249 226.928C336.753 227.825 339.755 229.692 338.551 232.782C337.087 236.535 329.188 235.454 325.807 235.336C305.36 234.653 284.938 234.247 264.468 234.401C258.738 234.971 240.597 232.825 236.499 237.366C226.49 248.246 222.291 250.356 208.098 249.955C194.489 249.57 189.81 236.573 183.758 235.319C175.373 233.579 158.356 234.591 149.077 234.608L102.55 234.464C99.1541 234.459 95.7555 234.509 92.3559 234.516C89.6235 234.521 82.388 234.658 84.7087 229.927C85.6943 227.918 87.4854 227.546 89.4344 227.036C96.5892 227.258 104.305 227.072 111.516 227.063L150.54 227.068C158.221 227.07 179.907 226.248 186.097 228.44C192.933 230.859 196.22 239.171 203.731 242.244C211.621 245.423 220.643 243.693 226.795 237.816C230.092 234.728 233.759 229.257 238.145 228.363C248.217 226.311 260.452 227.068 270.699 227.065L316.725 227.056C318.799 227.06 332.963 227.221 334.249 226.928Z" fill="white"/>
<path d="M273.884 29.8728C282.727 28.909 312.907 31.8497 321.481 39.1853C322.714 40.2397 325.367 52.4495 326.122 55.4941L334.596 90.2256C340.928 116.213 347.417 142.161 354.069 168.068L359.038 187.931C361.242 196.828 363.352 208.628 370.951 214.361C382.054 222.738 400.114 220.212 406.18 206.807C410.707 196.799 403.839 184.764 392.984 183.691C390.448 183.44 387.262 185.129 384.596 185.592C383.926 185.374 383.272 184.694 382.866 184.131C381.915 182.811 381.52 181.17 381.77 179.563C382.691 173.951 393.077 173.178 397.139 174.254C420.731 180.509 423.788 210.99 403.913 223.658C389.816 232.642 374.46 228.127 359.846 223.672C354.073 221.913 348.407 220.467 342.699 218.525C331.248 214.597 319.842 210.637 307.961 208.224C281.795 202.061 253.096 202.316 228.49 214.075C223.251 216.579 219.896 220.46 215.262 223.446C214.871 219.463 214.7 191.057 215.736 188.995C216.692 187.092 220.316 186.268 222.203 185.548C230.049 182.556 238.186 180.415 246.583 179.8C251.901 179.41 265.922 180.524 269.762 178.986C271.468 178.303 272.978 177.055 273.701 175.337C277.111 167.244 268.089 161.458 262.701 157.387C259.798 155.195 256.857 152.972 254.257 150.419C250.943 147.168 248.328 143.067 246.552 138.789C242.409 128.796 242.536 118.329 246.658 108.386C257.508 83.3126 289.937 75.437 310.645 93.3399C315.178 97.2572 319.768 103.31 321.952 108.897C327.819 123.975 324.082 141.1 312.467 152.364C308.009 156.629 297.661 163.859 295.128 169.349C291.295 177.66 301.143 179.986 307.439 179.731C312.354 179.531 317.393 180.236 322.738 179.454C324.476 179.214 326.168 178.727 327.768 178.009C330.955 176.552 333.348 174.13 334.567 170.809C335.432 168.452 335.994 165.073 332.875 164.14C329.895 164.481 328.278 170.204 325.468 171.774C324.995 172.039 324.007 172.808 323.38 172.905C318.03 173.751 312.63 173.599 307.271 172.922C305.923 172.966 301.583 171.207 303.537 169.416C306.906 166.332 310.958 163.192 314.397 160.192C322.964 152.844 328.72 142.755 330.686 131.642C335.074 106.811 317.701 81.713 292.802 77.4626C280.211 75.3049 267.28 78.2519 256.869 85.6517C234.618 101.67 230.448 131.306 247.345 152.906C249.332 155.448 253.108 158.724 255.437 160.756C264.177 168.387 275.376 173.591 254.735 173.051C246.297 172.831 237.36 173.99 229.295 176.728C227.355 177.386 217.565 180.85 216.192 180.41C214.623 178.999 215.123 173.139 215.118 170.915L215.108 156.598V112.967L215.128 77.6423C215.133 71.7143 215.02 65.453 215.354 59.5398C215.712 53.1975 224.661 47.3701 229.518 44.2378C243.38 35.296 257.489 30.9688 273.884 29.8728Z" fill="#21386E"/>
<path d="M144.389 29.1513C145.592 29.0155 147.425 29.0163 148.673 28.981C169.857 28.3841 189.396 36.7919 204.671 51.2808C208.281 54.7046 208.954 55.6571 208.978 60.5291C209.019 68.7564 208.992 76.9994 208.985 85.2289L208.975 131.529L208.978 160.766C208.973 166.162 209.026 171.565 208.819 176.957C208.834 179.083 207.262 180.413 205.135 180.269C189.26 179.196 180.186 165.336 174.143 152.266C172.248 148.167 169.635 143.931 169.042 139.341C168.422 134.536 173.061 131.378 175.288 127.652C177.384 124.226 184.071 111.496 180.555 108.243C180.077 107.8 179.441 107.569 178.791 107.6C176.056 107.756 174.572 113.726 173.657 115.951C171.543 121.089 169.106 125.772 165.252 129.828C160.96 125.63 158.345 116.839 155.764 111.129C147.085 91.9624 140.542 63.6831 116.101 59.6972C111.721 58.9831 108.684 62.0335 113.209 65.0455C114.444 65.868 115.958 66.4634 117.332 67.1225C123.584 70.1215 131.154 75.0355 133.537 81.8663C135.149 86.7408 132.18 93.9229 130.546 98.5563C127.418 106.817 123.209 114.846 119.423 122.866L103.286 157.37C100.956 162.274 97.707 168.492 96.3619 173.822C96.0159 175.193 97.6183 177.451 98.7293 176.987C105.264 174.261 106.273 163.173 110.431 158.174C113.178 154.873 119.097 156.018 122.853 155.649C134.118 155.261 144.624 152.693 154.542 147.256C156.636 146.109 159.86 144.129 162.174 143.921C163.51 145.246 168.54 155.397 169.958 158.033C171.598 161.078 173.321 164.078 175.124 167.029C181.67 177.037 188.431 183.174 200.343 186.182C202.867 186.819 206.015 186.681 208.045 187.938C208.574 188.806 209.004 191.466 208.949 192.367C208.718 196.194 209.509 221.558 208.581 222.565C206.933 222.265 204.243 219.302 202.653 218.127C179.766 201.398 150.394 202.597 123.906 207.463C108.51 210.289 96.9531 213.396 82.3157 218.697C71.5842 222.582 58.185 225.737 47.1538 228.346C38.0418 230.502 25.4813 227.633 18.1465 222.02C-1.40738 207.785 5.15551 177.445 30.087 174.226C38.2105 173.178 46.6604 176.661 39.4239 185.336C31.8209 183.063 24.0456 182.577 19.3969 190.034C9.05902 206.617 26.8768 222.469 43.5894 218.512C59.7963 214.674 61.8857 199.221 65.3025 185.703L71.1572 162.117L94.8143 65.0988C95.8368 60.8986 99.9643 41.9664 101.761 39.5398C103.112 37.715 106.806 36.6578 108.921 35.9485C120.511 32.0614 132.251 30.2172 144.389 29.1513Z" fill="#21386E"/>
<path d="M342.586 7.03051C360.115 5.00972 362.121 21.2976 366.075 34.1137C368.913 43.3872 371.83 52.636 374.83 61.8591L409.549 172.441C401.06 167.215 392.332 166.072 382.832 169.105C373.638 173.001 370.665 176.434 365.027 184.232C363.998 181.369 363.386 178.265 362.667 175.31C361.727 171.517 360.764 167.73 359.776 163.95C355.566 147.483 351.456 130.991 347.443 114.474L333.182 56.3549C332.014 51.4613 330.789 46.5811 329.51 41.7153C327.294 33.1482 323.99 21.9685 329.897 13.8717C333.129 9.44297 337.284 7.78236 342.586 7.03051Z" fill="#21386E"/>
<path d="M77.632 7.23862C84.8106 6.52017 92.421 9.54031 95.2308 16.5076C99.5035 27.1022 94.2667 39.7018 91.6693 50.212L80.3981 96.0586C75.5571 116.617 70.5887 137.146 65.4929 157.643L61.5611 173.945C60.8675 176.856 59.9062 181.565 58.868 184.15C54.0975 177.313 50.9671 173.543 43.4684 169.614C42.807 169.293 42.1375 168.99 41.4607 168.703C30.7559 164.257 23.4737 168.624 14.2438 172.431C14.6708 169.83 15.9659 165.846 16.7472 163.257C18.2021 158.339 19.7159 153.438 21.2883 148.557L33.56 110.164L52.6363 50.2483L57.9733 33.5414C61.7033 21.5728 63.2474 10.0065 77.632 7.23862Z" fill="#21386E"/>
<path d="M140.724 95.54C144.316 99.1921 149.064 113.803 151.694 118.853C153.932 123.151 156.43 128.795 158.117 133.371C158.484 134.368 158.071 136.556 157.344 137.329C153.076 142.624 138.064 147.597 131.898 148.562C130.237 148.918 128.557 149.18 126.866 149.345C124.393 149.59 116.93 150.228 115.089 148.715C115.315 146.18 138.061 98.818 140.724 95.54Z" fill="#21386E"/>
<path d="M373.878 182.965C376.454 183.516 377.807 199.822 383.568 196.513C386.423 194.873 387.442 191.049 391.767 190.549C397.631 189.871 401.378 195.266 401.262 200.626C401.166 203.426 400.027 205.235 398.33 207.446C398.049 207.737 397.756 208.013 397.448 208.277C390.832 213.931 378.48 214.037 372.703 207.023C369.382 202.991 368.442 197.068 368.92 191.993C369.283 188.143 370.891 185.355 373.878 182.965Z" fill="#21386E"/>
<path d="M50.1264 181.708C52.8781 182.519 55.6692 190.627 55.7795 193.38C56.4336 209.698 39.0148 219.405 26.2886 208.239C20.5005 202.261 22.0129 193.752 29.9871 190.64C35.0043 188.682 38.761 199.132 42.5138 197.878C48.3404 195.934 47.4445 185.856 50.1264 181.708Z" fill="#21386E"/>
</svg>
