<svg width="463" height="271" viewBox="0 0 463 271" fill="none" xmlns="http://www.w3.org/2000/svg">
<path d="M80.5047 0H88.6754C90.6792 0.758608 92.5337 1.09329 94.6492 2.02189C101.359 4.9672 105.743 9.22715 109.156 15.6229C111.349 18.2888 109.758 30.147 112.121 31.2285C115.522 32.785 122.56 29.6595 125.969 28.9085C143.959 24.9462 164.019 23.4771 182.229 26.4675C194.722 28.5188 209.446 37.2278 219.882 44.2998C223.653 46.929 226.797 51.458 231.106 52.6805C233.134 51.9685 235.181 51.09 236.711 49.501C242.304 43.6893 248.726 40.5833 255.476 36.6338C276.049 24.5964 301.811 22.9305 324.991 26.6925C328.734 27.3037 332.459 28.0043 336.169 28.7938C340.094 29.6545 344.934 31.465 348.866 31.5203C351.554 31.558 352.336 21.7155 352.576 19.9984C353.806 11.23 360.381 4.37875 368.626 1.61859C369.479 1.32443 372.411 0.343338 372.959 0H382.506C383.446 0.498375 385.609 1.11197 386.894 1.6979C391.071 3.58655 396.611 7.797 398.626 11.9732C403.129 21.2987 405.901 32.3488 409.026 42.1908L428.294 103.139L453.249 182.406C455.939 191.119 460.371 200.991 462.114 209.808C464.996 224.385 456.849 242.592 443.639 249.452C420.959 261.23 395.394 249.419 373.066 242.796C364.071 240.154 355.024 237.695 345.929 235.422C339.341 233.744 329.129 231.08 322.584 229.985C300.874 226.354 276.076 227.194 255.869 236.637C250.284 239.257 245.034 242.537 240.231 246.409C236.429 249.445 233.754 254.077 228.294 251.045C225.152 249.436 222.764 246.716 219.963 244.63C174.799 211.002 117.433 236.823 69.5762 249.062C61.1627 251.212 53.3999 254.28 44.6627 254.87C29.6954 255.88 12.0179 248.603 4.84667 234.857C1.8081 228.908 -0.770154 219.957 0.212271 213.269C1.2107 206.472 4.05592 198.879 6.09617 192.206L21.1857 144.536L45.5834 67.2258C48.0782 59.1643 50.0617 50.6997 53.0424 42.7137C58.0884 29.194 59.8467 9.7101 74.1802 2.4197C76.3172 1.33273 78.6929 0.983553 80.5047 0ZM234.571 195.425C235.346 195.799 236.179 196.221 236.959 196.568C244.184 194.42 251.079 191.337 258.441 189.641C266.466 187.792 274.814 187.867 282.989 187.346C285.231 187.204 290.736 187.547 291.964 185.309C292.211 184.86 292.169 184.336 292.004 183.858C291.159 181.432 279.406 173.661 276.474 170.926C261.306 156.784 255.919 133.049 263.931 113.857C269.276 101.057 279.479 91.5052 292.241 86.2858C304.331 81.206 317.961 81.2413 330.024 86.383C356.899 97.6948 368.954 126.615 357.576 153.539C355.064 159.629 351.336 165.143 346.621 169.743C341.906 174.345 334.466 178.635 330.431 183.832C329.424 185.13 333.099 187.628 334.229 187.557C341.971 189.201 350.891 189.811 358.061 185.822C360.391 184.499 362.229 178.115 365.096 177.977C365.591 178.26 365.941 178.575 366.021 179.182C367.971 193.531 348.026 195.076 338.124 194.082C335.044 193.773 328.026 193.051 325.709 191.35C316.636 184.693 331.991 174.659 336.306 170.785C340.296 167.201 343.129 164.938 346.164 161.341C355.024 150.868 358.576 136.902 355.796 123.469C350.999 99.4003 325.746 83.0648 301.781 88.7225C288.901 91.7628 276.166 99.814 270.221 112.029C264.531 123.376 262.851 135.009 266.921 147.25C269.046 153.628 272.666 159.404 277.479 164.097C279.291 165.871 281.254 167.484 283.344 168.919C289.716 173.357 301.989 179.592 298.309 189.246C297.714 190.807 295.304 192.614 293.704 192.923C286.079 194.395 278.024 192.541 270.201 192.892C260.791 193.314 252.954 195.613 244.261 199.016C240.269 200.518 234.294 201.506 234.176 206.965C233.956 217.168 233.726 227.414 233.504 237.622C233.476 238.844 233.856 240.716 234.529 241.758C236.904 242.897 240.936 237.504 242.856 236.298C256.759 227.578 278.534 223.43 294.861 223.008C311.254 222.488 327.636 224.365 343.486 228.581C359.204 232.802 374.386 238.734 390.166 242.803C397.631 244.728 404.881 247.795 412.599 248.926C421.469 250.405 431.984 248.766 439.911 244.538C443.186 242.791 446.874 238.727 449.286 235.979C456.721 227.51 459.196 217.865 455.006 207.154C451.889 199.189 445.516 192.288 437.681 188.692C432.119 186.133 427.301 186.895 421.784 188.904C415.556 191.171 416.686 195.258 418.631 200.208C422.671 201.833 425.171 199.86 429.414 199.611C435.516 199.253 441.011 205.12 443.271 210.324C445.211 214.79 445.074 219.868 443.224 224.404C441.211 229.398 437.286 233.378 432.321 235.458C421.191 240.064 404.269 235.486 399.839 223.384C398.639 220.103 397.774 216.948 396.724 213.637C393.221 202.602 391.401 191.261 388.629 180.068L364.541 81.3465C362.754 74.151 361.026 66.941 359.356 59.7175C358.146 54.5938 356.849 48.537 354.956 43.7025C353.844 40.8617 351.381 38.57 348.516 37.516C335.504 32.7305 316.539 30.4725 302.631 30.611C285.661 31.5555 272.814 33.9972 257.484 41.7215C250.536 45.2223 243.969 48.3275 238.781 54.4082C232.909 60.792 233.821 67.0472 233.559 75.0707C232.906 94.8767 233.589 114.7 233.756 134.496L233.936 174.196C233.939 178.757 233.274 191.742 234.571 195.425ZM228.023 241.81C229.906 236.426 229.169 228.492 229.246 222.634C229.306 218.184 229.994 207.623 228.296 204.091C228.067 203.62 227.818 203.159 227.549 202.71C224.514 201.259 219.076 200.85 215.4 199.836C205.649 197.145 198.571 190.441 192.943 182.269C192.059 180.986 190.01 177.913 189.397 176.508C185.619 169.689 182.454 162.409 178.55 155.743C175.741 150.949 165.928 158.853 162.683 160.297C155.347 163.563 147.45 165.105 139.536 166.192C135.412 166.83 124.28 166.28 121.661 167.952C115.035 172.184 114.516 184.79 108.751 189.851C108.05 190.466 107.341 191.081 106.374 190.927C105.801 190.429 105.566 190.165 105.529 189.349C105.288 184.094 113.971 168.248 116.492 163.052C119.339 157.183 121.742 151.096 124.529 145.193C129.678 134.286 147.502 100.317 147.289 90.5277C147.196 86.2475 144.524 82.452 141.614 79.521C139.772 77.666 137.559 75.9372 135.32 74.5843C132.351 72.7895 122.522 68.8672 121.336 66.4323C121.791 64.288 126.828 64.9762 128.394 65.318C146.732 69.322 154.236 87.0027 160.852 102.554C162.964 107.517 165.305 112.528 167.403 117.512C171.312 126.917 172.805 132.771 179.54 140.574C179.603 140.536 179.667 140.499 179.729 140.461C186.957 136.005 191.621 117.472 195.69 115.969C198.054 116.507 197.036 121.317 196.636 122.961C195.023 129.586 191.17 134.993 187.264 140.432C185.228 143.266 182.51 146.773 183.063 150.467C183.578 153.946 185.566 156.947 186.882 160.151C188.869 165.092 190.927 170.417 193.651 174.989C198.566 183.238 207.224 192.984 216.807 195.593C219.978 196.457 224.391 196.44 227.434 195.208C230.624 186.325 228.349 178.126 228.514 168.907C228.994 141.111 229.159 113.31 229.009 85.509C228.979 77.1647 228.684 68.803 228.689 60.4803C226.436 57.58 221.562 53.2792 218.624 50.9777C205.048 40.1667 188.791 33.2448 171.589 30.9503C167.905 30.4925 158.616 30.1792 154.777 30.6012C142.384 31.6455 130.564 33.542 118.647 37.1895C116.401 37.877 111.001 39.259 109.657 40.9445C107.591 43.5365 106.34 50.4332 105.549 53.5967L101.785 68.1413C97.0974 85.9725 92.6657 103.87 88.4912 121.828C86.1714 132.048 84.4497 142.307 81.8569 152.512C78.7574 164.71 75.4354 176.715 71.9569 188.806C68.6727 201.332 67.6519 214.827 60.9624 226.258C53.5447 238.935 34.6779 239.297 24.1719 230.583C20.7034 227.692 18.5462 223.524 18.1874 219.023C17.4352 209.987 21.3744 200.569 31.5069 199.593C35.0022 199.256 41.0817 201.575 43.6327 198.746C45.9399 196.188 46.2204 191.617 43.2159 189.382C40.9027 187.661 38.1339 187.351 35.3217 187.716C26.3739 189.23 17.5667 191.278 11.8254 198.845C7.12567 205.039 6.34317 210.639 6.74617 218.167C6.84242 219.967 6.74217 223.392 7.04442 224.917C8.38417 231.681 12.5264 236.875 17.8282 240.852C28.0187 248.495 36.3917 250.428 48.9609 248.847C56.5924 247.887 63.1394 245.539 70.4447 243.538C76.0919 241.99 81.3287 240.544 86.9524 238.853C95.4834 236.289 103.847 233.087 112.305 230.613C119.586 228.485 128.339 227.253 135.888 225.979C143.027 224.774 150.897 223.556 158.144 223.031C172.178 222.015 187.42 223.969 200.994 227.548C207.554 229.278 219.943 235.664 225.604 239.911C226.423 240.527 227.229 241.161 228.023 241.81ZM53.9294 195.555C49.0632 202.624 52.4427 211.442 44.7089 215.256C40.0792 212.83 36.3212 204.353 32.0437 206.355C23.2012 210.493 19.6517 220.638 26.9454 227.571C31.1019 231.366 36.9324 233.357 42.5924 233.016C52.7607 232.402 61.6939 221.174 60.9072 211.148C60.6102 207.365 58.1257 196.216 53.9294 195.555ZM417.969 185.257C421.539 183.684 426.319 183.141 428.741 183.083C430.636 182.72 446.981 187.448 446.906 183.979C446.586 170.824 439.089 158.579 436.526 145.757C436.409 145.178 435.854 143.623 435.616 143.07C432.751 136.394 431.851 129.271 429.726 122.401C428.961 119.266 425.456 114.737 424.834 111.895C421.214 95.4153 413.941 79.9635 409.811 63.597C407.576 54.7493 404.591 47.8703 401.526 39.345C397.379 27.8085 397.554 11.5015 384.541 5.6978C382.459 4.79903 375.786 5.2629 373.304 5.35903C367.741 5.52235 365.216 7.35725 361.391 11.2341C355.731 16.9715 356.639 20.882 356.651 28.1912C356.664 35.3783 359.011 39.4108 360.944 46.1367C362.556 51.5827 363.384 57.32 364.891 62.772C366.626 69.0495 368.839 75.1332 370.484 81.4502C371.534 85.4808 371.146 89.9115 372.124 93.6745C376.446 110.299 380.059 127.077 383.934 143.807C384.681 147.025 386.089 150.247 386.851 153.48C388.899 164.239 391.756 174.856 394.589 185.432C395.561 189.063 397.141 197.605 399.141 200.416C400.839 198.748 402.051 197.141 403.579 195.37C406.909 191.512 413.056 186.789 417.969 185.257ZM409.269 197.663C406.924 198.869 404.471 200.37 403.811 203.093C402.634 207.947 403.351 219.745 405.659 223.859C411.604 234.464 428.624 233.213 436.566 226.068C447.179 216.276 434.844 199.14 423.534 207.947C422.014 209.129 419.999 212.462 418.061 212.902C412.344 211.613 413.504 197.842 409.269 197.663ZM152.572 101.601C151.284 103.437 150.351 105.542 149.22 107.484C145.558 113.766 141.949 120.178 138.672 126.668C136.72 130.533 123.684 158.494 123.869 160.467C123.912 160.926 124.296 161.236 124.661 161.48C128.074 163.765 139.657 162.254 143.665 161.322C151.426 159.524 157.639 157.262 164.787 154.215C181.624 147.038 169.264 136.682 164.792 125.43C163.137 121.267 156.529 102.161 152.572 101.601ZM85.4889 6.60658C72.1887 7.78785 71.2104 11.9377 65.7829 23.4594C64.3852 26.7043 64.0799 30.6898 62.8134 33.9198C56.4617 50.1162 50.9409 66.7775 45.5584 83.3175C43.5504 89.488 44.8394 93.5155 40.7939 99.761C36.9352 105.718 36.5569 115.287 34.4409 121.981C33.7912 124.202 32.0479 126.627 31.3567 128.845C28.6177 137.632 26.0229 146.148 22.2919 154.594C20.6577 158.294 20.6419 164.63 19.1962 168.575C17.1797 175.085 14.6182 179.459 14.6717 186.542C28.1427 184.607 30.0369 176.959 45.3994 184.483C49.7092 187.01 52.2084 187.898 55.4874 191.971C57.0484 193.911 61.3379 199.684 63.6964 199.327C66.3232 196.762 70.1269 177.282 71.4209 172.4C79.1839 142.223 86.6409 111.968 93.7912 81.6403C95.5827 73.9017 97.0332 66.0983 98.8117 58.3503C99.9554 53.3672 101.472 48.7078 102.84 43.8558C104.114 39.3385 106.432 33.1257 106.379 28.55C106.319 23.3321 105.123 15.0625 101.218 11.2744C97.8494 8.00705 91.6697 6.43358 87.0822 6.51148C86.5502 6.52318 86.0187 6.5549 85.4889 6.60658Z" fill="#FEFEFE"/>
<path d="M306.421 248.878C320.686 248.65 334.954 248.633 349.219 248.826C354.726 248.931 360.304 248.799 365.776 249.316C367.749 249.503 370.531 249.849 370.859 252.145C370.661 252.887 370.329 253.38 369.789 253.917C367.886 255.822 365.309 256.367 362.709 256.57C356.474 257.052 350.116 255.845 343.871 255.622C324.441 254.932 304.939 253.682 285.491 253.745C280.154 253.76 263.616 253.49 259.684 255.687C256.834 257.28 254.934 260.115 252.659 262.385C247.124 267.86 239.624 270.885 231.841 270.777C220.222 270.707 213.189 266.74 205.725 258.082C202.33 254.16 198.167 254.325 193.442 254.45C181.89 254.757 170.341 254.605 158.789 254.527C149.325 254.44 139.918 254.947 130.467 255.307C125.909 255.482 94.2254 255.345 92.2799 253.25C91.7687 252.7 91.7332 252.425 91.7059 251.717C92.0384 250.787 92.6067 250.477 93.4022 249.88C96.1322 249.575 98.8742 249.388 101.62 249.32C125.176 248.602 148.938 249.362 172.493 249.483L189.693 249.479C193.83 249.463 200.414 248.982 204.223 249.998C208.825 251.225 211.432 256.815 214.853 259.965C219.537 264.277 225.318 265.68 231.576 265.442C238.649 265.23 245.599 263.445 250.276 257.77C252.911 254.572 254.706 250.16 259.349 249.631C264.479 249.046 269.869 249.284 275.074 249.246L306.421 248.878Z" fill="#FEFEFE"/>
</svg>
